# xmcd
#
# Track frame offsets:
#	150
#	25590
#	48748
#	68873
#	100116
#	122825
#	140030
#	162026
#	181819
#	189864
#	214997
#	232494
#	265922
#	286931
#	308242
#
# Disc length: 4363 seconds
#
# Revision: 0
# Processed by: cddbd v1.4PL0 Copyright (c) Steve Scherf et al.
# Submitted via: EasyCDDAExtractor 4.6.0.1
#
DISCID=dd11090f
DTITLE=Lucinda Williams - Myrtle Edwards Park, Seatle, Aug 28 -98
DYEAR=1900
DGENRE=
TTITLE0=Pineola
TTITLE1=Car Wheels On A Gravel Road 
TTITLE2=Metal Firecracker
TTITLE3=Lake Charles 
TTITLE4=Right In Time 
TTITLE5=Drunken Angel 
TTITLE6=Greenville
TTITLE7=Still I Long For Your Kiss
TTITLE8=(introduction) 
TTITLE9=Too Cool To Be Forgotten
TTITLE10=Can't Let Go
TTITLE11=Joy
TTITLE12=Changed The Locks
TTITLE13=Something About What Happens When We Talk
TTITLE14=Disgusted
EXTD=
EXTT0=
EXTT1=
EXTT2=
EXTT3=
EXTT4=
EXTT5=
EXTT6=
EXTT7=
EXTT8=
EXTT9=
EXTT10=
EXTT11=
EXTT12=
EXTT13=
EXTT14=
PLAYORDER=
